<mxfile host="app.diagrams.net" agent="Mozilla/5.0 (X11; Linux x86_64; rv:138.0) Gecko/20100101 Firefox/138.0" version="27.0.6">
  <diagram id="yPxyJZ8AM_hMuL3Unpa9" name="gitflow">
    <mxGraphModel dx="2618" dy="2068" grid="1" gridSize="10" guides="1" tooltips="1" connect="1" arrows="1" fold="1" page="1" pageScale="1" pageWidth="850" pageHeight="1100" background="#ffffff" math="0" shadow="0">
      <root>
        <mxCell id="0" />
        <mxCell id="1" parent="0" />
        <mxCell id="j1QhBanG4Ebp2g22lxq3-177" value="Client" style="ellipse;whiteSpace=wrap;html=1;aspect=fixed;" vertex="1" parent="1">
          <mxGeometry x="-70" y="307.5" width="55" height="55" as="geometry" />
        </mxCell>
        <mxCell id="j1QhBanG4Ebp2g22lxq3-178" value="API Gateway" style="whiteSpace=wrap;html=1;aspect=fixed;" vertex="1" parent="1">
          <mxGeometry x="50" y="300" width="70" height="70" as="geometry" />
        </mxCell>
        <mxCell id="j1QhBanG4Ebp2g22lxq3-179" value="&lt;div&gt;Event&lt;/div&gt;&lt;div&gt;&amp;nbsp;Service&lt;/div&gt;" style="whiteSpace=wrap;html=1;aspect=fixed;" vertex="1" parent="1">
          <mxGeometry x="370" y="370" width="100" height="100" as="geometry" />
        </mxCell>
        <mxCell id="j1QhBanG4Ebp2g22lxq3-180" value="&lt;div&gt;User&lt;/div&gt;&lt;div&gt;Service&lt;/div&gt;" style="whiteSpace=wrap;html=1;aspect=fixed;" vertex="1" parent="1">
          <mxGeometry x="370" y="260" width="100" height="100" as="geometry" />
        </mxCell>
        <mxCell id="j1QhBanG4Ebp2g22lxq3-181" value="&lt;div&gt;Request&lt;/div&gt;&lt;div&gt;Service&lt;/div&gt;" style="whiteSpace=wrap;html=1;aspect=fixed;" vertex="1" parent="1">
          <mxGeometry x="370" y="480" width="100" height="100" as="geometry" />
        </mxCell>
        <mxCell id="j1QhBanG4Ebp2g22lxq3-182" value="&lt;div&gt;Compilation&lt;/div&gt;&lt;div&gt;Service&lt;/div&gt;" style="whiteSpace=wrap;html=1;aspect=fixed;" vertex="1" parent="1">
          <mxGeometry x="370" y="590" width="100" height="100" as="geometry" />
        </mxCell>
        <mxCell id="j1QhBanG4Ebp2g22lxq3-183" value="&lt;div&gt;Category&lt;/div&gt;&lt;div&gt;Service&lt;/div&gt;" style="whiteSpace=wrap;html=1;aspect=fixed;" vertex="1" parent="1">
          <mxGeometry x="370" y="150" width="100" height="100" as="geometry" />
        </mxCell>
        <mxCell id="j1QhBanG4Ebp2g22lxq3-184" value="Redis" style="whiteSpace=wrap;html=1;aspect=fixed;" vertex="1" parent="1">
          <mxGeometry x="810" y="-70" width="70" height="70" as="geometry" />
        </mxCell>
        <mxCell id="j1QhBanG4Ebp2g22lxq3-185" value="&lt;div&gt;Statistics&lt;/div&gt;&lt;div&gt;&amp;nbsp;Service&lt;/div&gt;" style="whiteSpace=wrap;html=1;aspect=fixed;" vertex="1" parent="1">
          <mxGeometry x="370" y="40" width="100" height="100" as="geometry" />
        </mxCell>
        <mxCell id="j1QhBanG4Ebp2g22lxq3-186" value="&lt;div&gt;Discovery&lt;/div&gt;Service" style="whiteSpace=wrap;html=1;aspect=fixed;" vertex="1" parent="1">
          <mxGeometry x="510" y="-110" width="80" height="80" as="geometry" />
        </mxCell>
        <mxCell id="j1QhBanG4Ebp2g22lxq3-187" value="" style="endArrow=classic;html=1;rounded=0;entryX=0;entryY=0.5;entryDx=0;entryDy=0;exitX=1;exitY=0.5;exitDx=0;exitDy=0;" edge="1" parent="1" source="j1QhBanG4Ebp2g22lxq3-178" target="j1QhBanG4Ebp2g22lxq3-185">
          <mxGeometry width="50" height="50" relative="1" as="geometry">
            <mxPoint x="180" y="230" as="sourcePoint" />
            <mxPoint x="230" y="180" as="targetPoint" />
          </mxGeometry>
        </mxCell>
        <mxCell id="j1QhBanG4Ebp2g22lxq3-189" value="" style="endArrow=classic;html=1;rounded=0;entryX=0;entryY=0.5;entryDx=0;entryDy=0;exitX=1;exitY=0.5;exitDx=0;exitDy=0;" edge="1" parent="1" source="j1QhBanG4Ebp2g22lxq3-178" target="j1QhBanG4Ebp2g22lxq3-183">
          <mxGeometry width="50" height="50" relative="1" as="geometry">
            <mxPoint x="190" y="440" as="sourcePoint" />
            <mxPoint x="240" y="390" as="targetPoint" />
          </mxGeometry>
        </mxCell>
        <mxCell id="j1QhBanG4Ebp2g22lxq3-190" value="" style="endArrow=classic;html=1;rounded=0;entryX=0;entryY=0.5;entryDx=0;entryDy=0;exitX=1;exitY=0.5;exitDx=0;exitDy=0;" edge="1" parent="1" source="j1QhBanG4Ebp2g22lxq3-178" target="j1QhBanG4Ebp2g22lxq3-180">
          <mxGeometry width="50" height="50" relative="1" as="geometry">
            <mxPoint x="110" y="510" as="sourcePoint" />
            <mxPoint x="160" y="460" as="targetPoint" />
          </mxGeometry>
        </mxCell>
        <mxCell id="j1QhBanG4Ebp2g22lxq3-191" value="" style="endArrow=classic;html=1;rounded=0;entryX=0;entryY=0.5;entryDx=0;entryDy=0;exitX=1;exitY=0.5;exitDx=0;exitDy=0;" edge="1" parent="1" source="j1QhBanG4Ebp2g22lxq3-178" target="j1QhBanG4Ebp2g22lxq3-179">
          <mxGeometry width="50" height="50" relative="1" as="geometry">
            <mxPoint x="20" y="510" as="sourcePoint" />
            <mxPoint x="70" y="460" as="targetPoint" />
          </mxGeometry>
        </mxCell>
        <mxCell id="j1QhBanG4Ebp2g22lxq3-192" value="" style="endArrow=classic;html=1;rounded=0;entryX=0;entryY=0.5;entryDx=0;entryDy=0;exitX=1;exitY=0.5;exitDx=0;exitDy=0;" edge="1" parent="1" source="j1QhBanG4Ebp2g22lxq3-178" target="j1QhBanG4Ebp2g22lxq3-181">
          <mxGeometry width="50" height="50" relative="1" as="geometry">
            <mxPoint x="140" y="510" as="sourcePoint" />
            <mxPoint x="190" y="460" as="targetPoint" />
          </mxGeometry>
        </mxCell>
        <mxCell id="j1QhBanG4Ebp2g22lxq3-193" value="" style="endArrow=classic;html=1;rounded=0;entryX=0;entryY=0.5;entryDx=0;entryDy=0;exitX=1;exitY=0.5;exitDx=0;exitDy=0;" edge="1" parent="1" source="j1QhBanG4Ebp2g22lxq3-178" target="j1QhBanG4Ebp2g22lxq3-182">
          <mxGeometry width="50" height="50" relative="1" as="geometry">
            <mxPoint x="100" y="530" as="sourcePoint" />
            <mxPoint x="150" y="480" as="targetPoint" />
          </mxGeometry>
        </mxCell>
        <mxCell id="j1QhBanG4Ebp2g22lxq3-194" value="Keycloak" style="whiteSpace=wrap;html=1;aspect=fixed;" vertex="1" parent="1">
          <mxGeometry x="50" y="170" width="70" height="70" as="geometry" />
        </mxCell>
        <mxCell id="j1QhBanG4Ebp2g22lxq3-196" value="" style="endArrow=classic;html=1;rounded=0;entryX=0.5;entryY=1;entryDx=0;entryDy=0;exitX=0.5;exitY=0;exitDx=0;exitDy=0;" edge="1" parent="1" source="j1QhBanG4Ebp2g22lxq3-178" target="j1QhBanG4Ebp2g22lxq3-194">
          <mxGeometry width="50" height="50" relative="1" as="geometry">
            <mxPoint x="-90" y="250" as="sourcePoint" />
            <mxPoint x="-40" y="200" as="targetPoint" />
          </mxGeometry>
        </mxCell>
        <mxCell id="j1QhBanG4Ebp2g22lxq3-197" value="Database" style="shape=cylinder3;whiteSpace=wrap;html=1;boundedLbl=1;backgroundOutline=1;size=15;" vertex="1" parent="1">
          <mxGeometry x="580" y="40" width="63" height="72.5" as="geometry" />
        </mxCell>
        <mxCell id="j1QhBanG4Ebp2g22lxq3-198" value="Database" style="shape=cylinder3;whiteSpace=wrap;html=1;boundedLbl=1;backgroundOutline=1;size=15;" vertex="1" parent="1">
          <mxGeometry x="580" y="150" width="63" height="72.5" as="geometry" />
        </mxCell>
        <mxCell id="j1QhBanG4Ebp2g22lxq3-199" value="Database" style="shape=cylinder3;whiteSpace=wrap;html=1;boundedLbl=1;backgroundOutline=1;size=15;" vertex="1" parent="1">
          <mxGeometry x="580" y="260" width="63" height="72.5" as="geometry" />
        </mxCell>
        <mxCell id="j1QhBanG4Ebp2g22lxq3-201" value="Database" style="shape=cylinder3;whiteSpace=wrap;html=1;boundedLbl=1;backgroundOutline=1;size=15;" vertex="1" parent="1">
          <mxGeometry x="580" y="478" width="63" height="72.5" as="geometry" />
        </mxCell>
        <mxCell id="j1QhBanG4Ebp2g22lxq3-202" value="Database" style="shape=cylinder3;whiteSpace=wrap;html=1;boundedLbl=1;backgroundOutline=1;size=15;" vertex="1" parent="1">
          <mxGeometry x="580" y="580" width="63" height="72.5" as="geometry" />
        </mxCell>
        <mxCell id="j1QhBanG4Ebp2g22lxq3-207" value="Database" style="shape=cylinder3;whiteSpace=wrap;html=1;boundedLbl=1;backgroundOutline=1;size=15;" vertex="1" parent="1">
          <mxGeometry x="580" y="360" width="63" height="72.5" as="geometry" />
        </mxCell>
        <mxCell id="j1QhBanG4Ebp2g22lxq3-210" value="" style="endArrow=classic;startArrow=classic;html=1;rounded=0;exitX=1;exitY=0.5;exitDx=0;exitDy=0;entryX=-0.017;entryY=0.546;entryDx=0;entryDy=0;entryPerimeter=0;" edge="1" parent="1" target="j1QhBanG4Ebp2g22lxq3-197">
          <mxGeometry width="50" height="50" relative="1" as="geometry">
            <mxPoint x="470" y="81" as="sourcePoint" />
            <mxPoint x="540" y="80" as="targetPoint" />
          </mxGeometry>
        </mxCell>
        <mxCell id="j1QhBanG4Ebp2g22lxq3-212" value="Kafka" style="rounded=0;whiteSpace=wrap;html=1;" vertex="1" parent="1">
          <mxGeometry x="950" y="100" width="60" height="480" as="geometry" />
        </mxCell>
        <mxCell id="j1QhBanG4Ebp2g22lxq3-214" value="" style="endArrow=classic;startArrow=classic;html=1;rounded=0;exitX=1.006;exitY=0.392;exitDx=0;exitDy=0;entryX=-0.021;entryY=0.544;entryDx=0;entryDy=0;entryPerimeter=0;exitPerimeter=0;" edge="1" parent="1" source="j1QhBanG4Ebp2g22lxq3-183" target="j1QhBanG4Ebp2g22lxq3-198">
          <mxGeometry width="50" height="50" relative="1" as="geometry">
            <mxPoint x="490" y="186.75" as="sourcePoint" />
            <mxPoint x="560" y="185.75" as="targetPoint" />
          </mxGeometry>
        </mxCell>
        <mxCell id="j1QhBanG4Ebp2g22lxq3-215" value="" style="endArrow=classic;startArrow=classic;html=1;rounded=0;exitX=1;exitY=0.5;exitDx=0;exitDy=0;entryX=-0.002;entryY=0.566;entryDx=0;entryDy=0;entryPerimeter=0;" edge="1" parent="1" target="j1QhBanG4Ebp2g22lxq3-199">
          <mxGeometry width="50" height="50" relative="1" as="geometry">
            <mxPoint x="470" y="301" as="sourcePoint" />
            <mxPoint x="540" y="300" as="targetPoint" />
          </mxGeometry>
        </mxCell>
        <mxCell id="j1QhBanG4Ebp2g22lxq3-216" value="" style="endArrow=classic;startArrow=classic;html=1;rounded=0;exitX=1;exitY=0.5;exitDx=0;exitDy=0;entryX=-0.025;entryY=0.559;entryDx=0;entryDy=0;entryPerimeter=0;" edge="1" parent="1" target="j1QhBanG4Ebp2g22lxq3-207">
          <mxGeometry width="50" height="50" relative="1" as="geometry">
            <mxPoint x="470" y="401" as="sourcePoint" />
            <mxPoint x="540" y="400" as="targetPoint" />
          </mxGeometry>
        </mxCell>
        <mxCell id="j1QhBanG4Ebp2g22lxq3-217" value="" style="endArrow=classic;startArrow=classic;html=1;rounded=0;exitX=1;exitY=0.5;exitDx=0;exitDy=0;entryX=-0.017;entryY=0.593;entryDx=0;entryDy=0;entryPerimeter=0;" edge="1" parent="1" target="j1QhBanG4Ebp2g22lxq3-201">
          <mxGeometry width="50" height="50" relative="1" as="geometry">
            <mxPoint x="470" y="521" as="sourcePoint" />
            <mxPoint x="540" y="520" as="targetPoint" />
          </mxGeometry>
        </mxCell>
        <mxCell id="j1QhBanG4Ebp2g22lxq3-218" value="" style="endArrow=classic;startArrow=classic;html=1;rounded=0;exitX=1;exitY=0.5;exitDx=0;exitDy=0;entryX=-0.048;entryY=0.684;entryDx=0;entryDy=0;entryPerimeter=0;" edge="1" parent="1" target="j1QhBanG4Ebp2g22lxq3-202">
          <mxGeometry width="50" height="50" relative="1" as="geometry">
            <mxPoint x="470" y="631" as="sourcePoint" />
            <mxPoint x="540" y="630" as="targetPoint" />
          </mxGeometry>
        </mxCell>
        <mxCell id="j1QhBanG4Ebp2g22lxq3-219" value="" style="endArrow=classic;html=1;rounded=0;entryX=-0.033;entryY=0.96;entryDx=0;entryDy=0;entryPerimeter=0;exitX=0.998;exitY=0.797;exitDx=0;exitDy=0;exitPerimeter=0;startArrow=classic;startFill=1;" edge="1" parent="1" source="j1QhBanG4Ebp2g22lxq3-181" target="j1QhBanG4Ebp2g22lxq3-212">
          <mxGeometry width="50" height="50" relative="1" as="geometry">
            <mxPoint x="460" y="560" as="sourcePoint" />
            <mxPoint x="680" y="560" as="targetPoint" />
          </mxGeometry>
        </mxCell>
        <mxCell id="j1QhBanG4Ebp2g22lxq3-220" value="" style="endArrow=classic;html=1;rounded=0;entryX=0.017;entryY=0.27;entryDx=0;entryDy=0;entryPerimeter=0;exitX=0.998;exitY=0.8;exitDx=0;exitDy=0;exitPerimeter=0;startArrow=classic;startFill=1;" edge="1" parent="1" source="j1QhBanG4Ebp2g22lxq3-183" target="j1QhBanG4Ebp2g22lxq3-212">
          <mxGeometry width="50" height="50" relative="1" as="geometry">
            <mxPoint x="460" y="230" as="sourcePoint" />
            <mxPoint x="680" y="230" as="targetPoint" />
            <Array as="points" />
          </mxGeometry>
        </mxCell>
        <mxCell id="j1QhBanG4Ebp2g22lxq3-222" value="" style="endArrow=classic;html=1;rounded=0;exitX=1.004;exitY=0.796;exitDx=0;exitDy=0;exitPerimeter=0;entryX=0;entryY=0.5;entryDx=0;entryDy=0;startArrow=classic;startFill=1;" edge="1" parent="1" source="j1QhBanG4Ebp2g22lxq3-180" target="j1QhBanG4Ebp2g22lxq3-212">
          <mxGeometry width="50" height="50" relative="1" as="geometry">
            <mxPoint x="560" y="350" as="sourcePoint" />
            <mxPoint x="780" y="350" as="targetPoint" />
          </mxGeometry>
        </mxCell>
        <mxCell id="j1QhBanG4Ebp2g22lxq3-223" value="" style="endArrow=classic;html=1;rounded=0;exitX=1;exitY=0.9;exitDx=0;exitDy=0;exitPerimeter=0;entryX=0;entryY=0.063;entryDx=0;entryDy=0;entryPerimeter=0;startArrow=classic;startFill=1;" edge="1" parent="1" source="j1QhBanG4Ebp2g22lxq3-185" target="j1QhBanG4Ebp2g22lxq3-212">
          <mxGeometry width="50" height="50" relative="1" as="geometry">
            <mxPoint x="510" y="120" as="sourcePoint" />
            <mxPoint x="850" y="120" as="targetPoint" />
          </mxGeometry>
        </mxCell>
        <mxCell id="j1QhBanG4Ebp2g22lxq3-224" value="Elasticsearch" style="whiteSpace=wrap;html=1;aspect=fixed;" vertex="1" parent="1">
          <mxGeometry x="720" y="370" width="80" height="80" as="geometry" />
        </mxCell>
        <mxCell id="j1QhBanG4Ebp2g22lxq3-228" value="" style="endArrow=classic;startArrow=classic;html=1;rounded=0;entryX=-0.01;entryY=0.875;entryDx=0;entryDy=0;entryPerimeter=0;exitX=1.02;exitY=0.712;exitDx=0;exitDy=0;exitPerimeter=0;" edge="1" parent="1" source="j1QhBanG4Ebp2g22lxq3-179" target="j1QhBanG4Ebp2g22lxq3-224">
          <mxGeometry width="50" height="50" relative="1" as="geometry">
            <mxPoint x="590" y="490" as="sourcePoint" />
            <mxPoint x="640" y="440" as="targetPoint" />
          </mxGeometry>
        </mxCell>
        <mxCell id="j1QhBanG4Ebp2g22lxq3-232" value="" style="endArrow=classic;html=1;rounded=1;curved=0;" edge="1" parent="1">
          <mxGeometry width="50" height="50" relative="1" as="geometry">
            <mxPoint x="850" y="680" as="sourcePoint" />
            <mxPoint x="850" as="targetPoint" />
            <Array as="points">
              <mxPoint x="850" y="570" />
              <mxPoint x="860" y="560" />
              <mxPoint x="850" y="550" />
              <mxPoint x="850" y="350" />
              <mxPoint x="860" y="340" />
              <mxPoint x="850" y="330" />
              <mxPoint x="850" y="240" />
              <mxPoint x="860" y="230" />
              <mxPoint x="850" y="220" />
              <mxPoint x="850" y="140" />
              <mxPoint x="860" y="130" />
              <mxPoint x="850" y="120" />
            </Array>
          </mxGeometry>
        </mxCell>
        <mxCell id="j1QhBanG4Ebp2g22lxq3-233" value="" style="endArrow=classicThin;html=1;rounded=0;exitX=1.006;exitY=0.894;exitDx=0;exitDy=0;exitPerimeter=0;startArrow=classic;startFill=1;endFill=1;" edge="1" parent="1" source="j1QhBanG4Ebp2g22lxq3-182">
          <mxGeometry width="50" height="50" relative="1" as="geometry">
            <mxPoint x="630" y="730" as="sourcePoint" />
            <mxPoint x="850" y="680" as="targetPoint" />
          </mxGeometry>
        </mxCell>
        <mxCell id="j1QhBanG4Ebp2g22lxq3-235" value="" style="endArrow=classicThin;html=1;rounded=0;exitX=1.006;exitY=0.894;exitDx=0;exitDy=0;exitPerimeter=0;startArrow=classic;startFill=1;endFill=1;" edge="1" parent="1">
          <mxGeometry width="50" height="50" relative="1" as="geometry">
            <mxPoint x="471" y="460" as="sourcePoint" />
            <mxPoint x="850" y="461" as="targetPoint" />
          </mxGeometry>
        </mxCell>
        <mxCell id="j1QhBanG4Ebp2g22lxq3-236" value="" style="endArrow=classicThin;html=1;rounded=0;exitX=1.006;exitY=0.894;exitDx=0;exitDy=0;exitPerimeter=0;startArrow=classic;startFill=1;endFill=1;" edge="1" parent="1">
          <mxGeometry width="50" height="50" relative="1" as="geometry">
            <mxPoint x="470" y="350" as="sourcePoint" />
            <mxPoint x="849" y="351" as="targetPoint" />
          </mxGeometry>
        </mxCell>
        <mxCell id="j1QhBanG4Ebp2g22lxq3-237" value="" style="endArrow=classicThin;html=1;rounded=0;exitX=1.006;exitY=0.894;exitDx=0;exitDy=0;exitPerimeter=0;startArrow=classic;startFill=1;endFill=1;" edge="1" parent="1">
          <mxGeometry width="50" height="50" relative="1" as="geometry">
            <mxPoint x="471" y="240" as="sourcePoint" />
            <mxPoint x="850" y="241" as="targetPoint" />
          </mxGeometry>
        </mxCell>
        <mxCell id="j1QhBanG4Ebp2g22lxq3-239" value="" style="endArrow=classic;html=1;" edge="1" parent="1">
          <mxGeometry width="50" height="50" relative="1" as="geometry">
            <mxPoint y="334.82" as="sourcePoint" />
            <mxPoint x="40" y="335" as="targetPoint" />
          </mxGeometry>
        </mxCell>
        <mxCell id="j1QhBanG4Ebp2g22lxq3-240" value="&lt;div&gt;Config&lt;/div&gt;Service" style="whiteSpace=wrap;html=1;aspect=fixed;" vertex="1" parent="1">
          <mxGeometry x="380" y="-110" width="80" height="80" as="geometry" />
        </mxCell>
        <mxCell id="j1QhBanG4Ebp2g22lxq3-241" value="" style="endArrow=none;html=1;rounded=0;" edge="1" parent="1">
          <mxGeometry width="50" height="50" relative="1" as="geometry">
            <mxPoint x="420" y="10" as="sourcePoint" />
            <mxPoint x="550" y="10" as="targetPoint" />
          </mxGeometry>
        </mxCell>
        <mxCell id="j1QhBanG4Ebp2g22lxq3-242" value="" style="endArrow=classic;html=1;rounded=0;entryX=0.5;entryY=1;entryDx=0;entryDy=0;" edge="1" parent="1" target="j1QhBanG4Ebp2g22lxq3-240">
          <mxGeometry width="50" height="50" relative="1" as="geometry">
            <mxPoint x="420" y="10" as="sourcePoint" />
            <mxPoint x="320" y="-60" as="targetPoint" />
          </mxGeometry>
        </mxCell>
        <mxCell id="j1QhBanG4Ebp2g22lxq3-243" value="" style="endArrow=classic;html=1;rounded=0;entryX=0.5;entryY=1;entryDx=0;entryDy=0;" edge="1" parent="1" target="j1QhBanG4Ebp2g22lxq3-186">
          <mxGeometry width="50" height="50" relative="1" as="geometry">
            <mxPoint x="550" y="10" as="sourcePoint" />
            <mxPoint x="540" y="-30" as="targetPoint" />
          </mxGeometry>
        </mxCell>
        <mxCell id="j1QhBanG4Ebp2g22lxq3-244" value="" style="endArrow=none;html=1;rounded=1;curved=0;" edge="1" parent="1">
          <mxGeometry width="50" height="50" relative="1" as="geometry">
            <mxPoint x="510" y="600" as="sourcePoint" />
            <mxPoint x="510" y="10" as="targetPoint" />
            <Array as="points">
              <mxPoint x="510" y="570" />
              <mxPoint x="520" y="560" />
              <mxPoint x="510" y="550" />
              <mxPoint x="510" y="530" />
              <mxPoint x="520" y="520" />
              <mxPoint x="510" y="510" />
              <mxPoint x="510" y="470" />
              <mxPoint x="520" y="460" />
              <mxPoint x="510" y="450" />
              <mxPoint x="520" y="440" />
              <mxPoint x="510" y="430" />
              <mxPoint x="510" y="410" />
              <mxPoint x="520" y="400" />
              <mxPoint x="510" y="390" />
              <mxPoint x="510" y="360" />
              <mxPoint x="520" y="350" />
              <mxPoint x="520" y="340" />
              <mxPoint x="510" y="330" />
              <mxPoint x="510" y="310" />
              <mxPoint x="520" y="300" />
              <mxPoint x="510" y="290" />
              <mxPoint x="510" y="250" />
              <mxPoint x="520" y="240" />
              <mxPoint x="520" y="230" />
              <mxPoint x="510" y="220" />
              <mxPoint x="510" y="200" />
              <mxPoint x="520" y="190" />
              <mxPoint x="510" y="180" />
              <mxPoint x="510" y="140" />
              <mxPoint x="520" y="130" />
              <mxPoint x="510" y="120" />
              <mxPoint x="510" y="90" />
              <mxPoint x="520" y="80" />
              <mxPoint x="510" y="70" />
            </Array>
          </mxGeometry>
        </mxCell>
        <mxCell id="j1QhBanG4Ebp2g22lxq3-247" value="" style="endArrow=none;html=1;rounded=0;exitX=1;exitY=0.7;exitDx=0;exitDy=0;exitPerimeter=0;" edge="1" parent="1">
          <mxGeometry width="50" height="50" relative="1" as="geometry">
            <mxPoint x="470" y="490" as="sourcePoint" />
            <mxPoint x="510" y="490" as="targetPoint" />
          </mxGeometry>
        </mxCell>
        <mxCell id="j1QhBanG4Ebp2g22lxq3-248" value="" style="endArrow=none;html=1;rounded=0;exitX=1;exitY=0.7;exitDx=0;exitDy=0;exitPerimeter=0;" edge="1" parent="1">
          <mxGeometry width="50" height="50" relative="1" as="geometry">
            <mxPoint x="470" y="380" as="sourcePoint" />
            <mxPoint x="510" y="380" as="targetPoint" />
          </mxGeometry>
        </mxCell>
        <mxCell id="j1QhBanG4Ebp2g22lxq3-249" value="" style="endArrow=none;html=1;rounded=0;exitX=1;exitY=0.7;exitDx=0;exitDy=0;exitPerimeter=0;" edge="1" parent="1">
          <mxGeometry width="50" height="50" relative="1" as="geometry">
            <mxPoint x="470" y="270" as="sourcePoint" />
            <mxPoint x="510" y="270" as="targetPoint" />
          </mxGeometry>
        </mxCell>
        <mxCell id="j1QhBanG4Ebp2g22lxq3-250" value="" style="endArrow=none;html=1;rounded=0;exitX=1;exitY=0.7;exitDx=0;exitDy=0;exitPerimeter=0;" edge="1" parent="1">
          <mxGeometry width="50" height="50" relative="1" as="geometry">
            <mxPoint x="470" y="160" as="sourcePoint" />
            <mxPoint x="510" y="160" as="targetPoint" />
          </mxGeometry>
        </mxCell>
        <mxCell id="j1QhBanG4Ebp2g22lxq3-251" value="" style="endArrow=none;html=1;rounded=0;exitX=1;exitY=0.7;exitDx=0;exitDy=0;exitPerimeter=0;" edge="1" parent="1">
          <mxGeometry width="50" height="50" relative="1" as="geometry">
            <mxPoint x="470" y="60" as="sourcePoint" />
            <mxPoint x="510" y="60" as="targetPoint" />
          </mxGeometry>
        </mxCell>
        <mxCell id="j1QhBanG4Ebp2g22lxq3-252" value="" style="endArrow=none;html=1;rounded=0;exitX=1;exitY=0.7;exitDx=0;exitDy=0;exitPerimeter=0;" edge="1" parent="1">
          <mxGeometry width="50" height="50" relative="1" as="geometry">
            <mxPoint x="470" y="600" as="sourcePoint" />
            <mxPoint x="510" y="600" as="targetPoint" />
            <Array as="points">
              <mxPoint x="490" y="600" />
            </Array>
          </mxGeometry>
        </mxCell>
        <mxCell id="j1QhBanG4Ebp2g22lxq3-253" value="HTTP" style="text;html=1;align=center;verticalAlign=middle;whiteSpace=wrap;rounded=0;" vertex="1" parent="1">
          <mxGeometry x="450" y="-20" width="60" height="30" as="geometry" />
        </mxCell>
        <mxCell id="j1QhBanG4Ebp2g22lxq3-254" value="AMQP" style="text;html=1;align=center;verticalAlign=middle;whiteSpace=wrap;rounded=0;" vertex="1" parent="1">
          <mxGeometry x="870" y="100" width="60" height="30" as="geometry" />
        </mxCell>
        <mxCell id="j1QhBanG4Ebp2g22lxq3-255" value="AMQP" style="text;html=1;align=center;verticalAlign=middle;whiteSpace=wrap;rounded=0;" vertex="1" parent="1">
          <mxGeometry x="870" y="200" width="60" height="30" as="geometry" />
        </mxCell>
        <mxCell id="j1QhBanG4Ebp2g22lxq3-256" value="AMQP" style="text;html=1;align=center;verticalAlign=middle;whiteSpace=wrap;rounded=0;" vertex="1" parent="1">
          <mxGeometry x="870" y="307.5" width="60" height="30" as="geometry" />
        </mxCell>
        <mxCell id="j1QhBanG4Ebp2g22lxq3-257" value="AMQP" style="text;html=1;align=center;verticalAlign=middle;whiteSpace=wrap;rounded=0;" vertex="1" parent="1">
          <mxGeometry x="880" y="530" width="60" height="30" as="geometry" />
        </mxCell>
      </root>
    </mxGraphModel>
  </diagram>
</mxfile>
